<svg xmlns="http://www.w3.org/2000/svg" width="195.1" height="53.8" viewBox="0 0 2032 561" shape-rendering="geometricPrecision" text-rendering="geometricPrecision" image-rendering="optimizeQuality" fill-rule="evenodd" clip-rule="evenodd"><defs><style>.fil0,.fil1{fill:#d12856;fill-rule:nonzero}.fil0{fill:orange}</style></defs><g id="__x0023_Layer_x0020_2"><g id="_301729424"><path class="fil0" d="M998 259c0-10 8-18 17-18h100c71 0 117 38 117 99v1c0 68-56 102-123 102h-76v95c0 10-8 18-18 18-9 0-17-8-17-18V259zm113 152c52 0 86-28 86-69v-1c0-45-34-68-84-68h-79v138h77zM1300 257c0-10 8-18 17-18 10 0 18 8 18 18v282c0 10-8 18-18 18-9 0-17-8-17-18V257zM1427 257c0-9 8-17 17-17h5c8 0 13 4 18 10l190 242V256c0-9 8-17 17-17s17 8 17 17v283c0 9-7 17-16 17h-2c-8 0-13-4-18-11l-194-248v242c0 9-8 17-17 17s-17-8-17-17V257zM1780 257c0-10 8-18 17-18 10 0 18 8 18 18v171l178-183c4-4 8-6 14-6 9 0 17 9 17 17 0 5-2 9-6 13l-111 110 119 147c3 4 5 8 5 13 0 9-8 18-18 18-7 0-11-4-14-8l-117-145-68 68v68c0 10-8 18-18 18-9 0-17-8-17-18V258z"/></g><path class="fil1" d="M1368 137c-28 0-50-23-50-50 0 28-23 50-50 50 28 0 50 23 50 50 0-28 23-50 50-50z"/><g id="_301731368"><path class="fil0" d="M599 268h10c-6-10-17-17-30-17-12 0-22-8-26-19l-29 11 3 1c15 0 28 12 28 28v4c14-5 29-8 45-8z"/><path class="fil0" d="M840 389L768 92c-5-33-36-92-119-92-12 0-21 9-21 21s9 21 21 21c67 0 77 52 78 58l66 274h-29c-6-49-34-92-74-118-12 5-21 18-21 32v4a124 124 0 0155 104l-2 21a126 126 0 01-248 0l-2-21 2-21c2-12 6-24 11-35-14-1-26-13-26-28 0-3-1-5-3-7-13 20-22 44-25 69h-25a167 167 0 00-332 0H45l66-274c1-6 11-58 78-58 12 0 21-9 21-21s-9-21-21-21C106 0 75 60 70 92L-2 389c-4 15 7 25 20 25h56l5 25 1-5a28 28 0 0135-27l-1-14 2-21a126 126 0 01250 21l-2 21a126 126 0 01-199 80c-5 4-11 7-18 7-6 0-10 5-10 10l-2 11a168 168 0 00272-108h25a167 167 0 00332 0h56c12 0 24-10 20-25z"/></g><path class="fil1" d="M704 224c-35 0-62-28-62-62 0 35-28 62-62 62 35 0 62 28 62 62 0-35 28-62 62-62z" id="_301731512"/><path class="fil1" d="M526 273c-21 0-38-17-38-38 0 21-17 38-38 38 21 0 38 17 38 38 0-21 17-38 38-38z" id="_301732064"/><path class="fil1" d="M149 473c-21 0-38-17-38-38 0 21-17 38-38 38 21 0 38 17 38 38 0-21 17-38 38-38z" id="_301732112"/></g></svg>